<svg width="64" height="64" viewBox="0 0 64 64" fill="none" xmlns="http://www.w3.org/2000/svg">
<path d="M36.5947 4.125L46.4102 15.2461V57.6348H7.125V4.125H36.5947Z" fill="#BCD0FF" stroke="black" stroke-width="0.25"/>
<path d="M13.9767 21.92H39.5581" stroke="black" stroke-width="4" stroke-linecap="round"/>
<path d="M13.9767 33.12H36.0697" stroke="black" stroke-width="4" stroke-linecap="round"/>
<path d="M13.9767 44.32H27.9302" stroke="black" stroke-width="4" stroke-linecap="round"/>
<path d="M43.5 62C50.9558 62 57 55.9558 57 48.5C57 41.0442 50.9558 35 43.5 35C36.0442 35 30 41.0442 30 48.5C30 55.9558 36.0442 62 43.5 62Z" fill="#0EA5A4"/>
<path d="M48.3204 45.0057L47.8162 46.8665H38.3915L38.9028 45.0057H48.3204ZM43.5832 56L38.6116 50.0199L38.6045 48.4432H41.0619C41.649 48.4432 42.1391 48.3461 42.5321 48.152C42.9298 47.9531 43.2305 47.6761 43.4341 47.321C43.6424 46.9612 43.7466 46.5398 43.7466 46.0568C43.7466 45.3324 43.5335 44.75 43.1074 44.3097C42.6812 43.8693 41.9994 43.6491 41.0619 43.6491H38.3915L38.9454 41.4545H41.0619C42.2551 41.4545 43.2423 41.6392 44.0236 42.0085C44.8095 42.3731 45.3967 42.8892 45.7849 43.5568C46.1779 44.2244 46.3744 45.0057 46.3744 45.9006C46.3744 46.6913 46.23 47.3968 45.9412 48.017C45.6523 48.6373 45.1978 49.1463 44.5775 49.544C43.9573 49.9418 43.1452 50.2069 42.1415 50.3395L42.0562 50.3679L46.5449 55.8722V56H43.5832ZM48.3346 41.4545L47.8162 43.3438L40.1741 43.3153L40.6926 41.4545H48.3346Z" fill="white"/>
</svg>
